<svg width="426" height="431" viewBox="0 0 426 431" fill="none" xmlns="http://www.w3.org/2000/svg">
<path d="M24.112 53.872H44.656V70H2.8V2.032H24.112V53.872ZM72.6745 19.024V27.376H93.7945V43.408H72.6745V53.008H96.6745V70H51.3625V2.032H96.6745V19.024H72.6745ZM158.082 2.032V18.928H140.034V70H118.722V18.928H100.866V2.032H158.082ZM169.431 2.032H190.551L179.223 30.352H165.207L169.431 2.032ZM226.736 70.672C218.608 70.672 211.888 68.784 206.576 65.008C201.328 61.168 198.48 55.568 198.032 48.208H220.688C221.008 52.112 222.736 54.064 225.872 54.064C227.024 54.064 227.984 53.808 228.752 53.296C229.584 52.72 230 51.856 230 50.704C230 49.104 229.136 47.824 227.408 46.864C225.68 45.84 222.992 44.688 219.344 43.408C214.992 41.872 211.376 40.368 208.496 38.896C205.68 37.424 203.248 35.28 201.2 32.464C199.152 29.648 198.16 26.032 198.224 21.616C198.224 17.2 199.344 13.456 201.584 10.384C203.888 7.248 206.992 4.88 210.896 3.27999C214.864 1.68 219.312 0.879997 224.24 0.879997C232.56 0.879997 239.152 2.8 244.016 6.64C248.944 10.48 251.536 15.888 251.792 22.864H228.848C228.784 20.944 228.304 19.568 227.408 18.736C226.512 17.904 225.424 17.488 224.144 17.488C223.248 17.488 222.512 17.808 221.936 18.448C221.36 19.024 221.072 19.856 221.072 20.944C221.072 22.48 221.904 23.76 223.568 24.784C225.296 25.744 228.016 26.928 231.728 28.336C236.016 29.936 239.536 31.472 242.288 32.944C245.104 34.416 247.536 36.464 249.584 39.088C251.632 41.712 252.656 45.008 252.656 48.976C252.656 53.136 251.632 56.88 249.584 60.208C247.536 63.472 244.56 66.032 240.656 67.888C236.752 69.744 232.112 70.672 226.736 70.672ZM24.112 139.024V147.376H45.232V163.408H24.112V173.008H48.112V190H2.8V122.032H48.112V139.024H24.112ZM99.4398 190L86.9598 172.336L76.5918 190H52.3038L74.6718 154.96L51.3438 122.032H76.5918L88.5918 139.024L98.5758 122.032H122.864L100.88 156.4L124.688 190H99.4398ZM185.04 145.36C185.04 149.648 184.048 153.552 182.064 157.072C180.08 160.528 177.136 163.28 173.232 165.328C169.392 167.376 164.72 168.4 159.216 168.4H150.768V190H129.456V122.032H159.216C167.536 122.032 173.904 124.144 178.32 128.368C182.8 132.592 185.04 138.256 185.04 145.36ZM156.816 151.6C161.232 151.6 163.44 149.52 163.44 145.36C163.44 141.2 161.232 139.12 156.816 139.12H150.768V151.6H156.816ZM213.112 173.872H233.656V190H191.8V122.032H213.112V173.872ZM273.483 190.672C267.083 190.672 261.195 189.168 255.819 186.16C250.507 183.152 246.283 178.992 243.147 173.68C240.011 168.368 238.443 162.384 238.443 155.728C238.443 149.072 240.011 143.088 243.147 137.776C246.283 132.464 250.507 128.336 255.819 125.392C261.195 122.384 267.083 120.88 273.483 120.88C279.883 120.88 285.739 122.384 291.051 125.392C296.363 128.336 300.555 132.464 303.627 137.776C306.763 143.088 308.331 149.072 308.331 155.728C308.331 162.384 306.763 168.368 303.627 173.68C300.555 178.992 296.331 183.152 290.955 186.16C285.643 189.168 279.819 190.672 273.483 190.672ZM273.483 170.8C277.707 170.8 280.971 169.456 283.275 166.768C285.579 164.016 286.731 160.336 286.731 155.728C286.731 151.056 285.579 147.376 283.275 144.688C280.971 141.936 277.707 140.56 273.483 140.56C269.195 140.56 265.899 141.936 263.595 144.688C261.291 147.376 260.139 151.056 260.139 155.728C260.139 160.336 261.291 164.016 263.595 166.768C265.899 169.456 269.195 170.8 273.483 170.8ZM350.195 190L337.427 165.616H337.331V190H316.019V122.032H347.699C353.203 122.032 357.907 123.024 361.811 125.008C365.715 126.928 368.627 129.584 370.547 132.976C372.531 136.304 373.523 140.08 373.523 144.304C373.523 148.848 372.243 152.88 369.683 156.4C367.187 159.92 363.571 162.448 358.835 163.984L373.619 190H350.195ZM337.331 151.408H345.779C347.827 151.408 349.363 150.96 350.387 150.064C351.411 149.104 351.923 147.632 351.923 145.648C351.923 143.856 351.379 142.448 350.291 141.424C349.267 140.4 347.763 139.888 345.779 139.888H337.331V151.408ZM401.643 139.024V147.376H422.763V163.408H401.643V173.008H425.643V190H380.331V122.032H425.643V139.024H401.643ZM23.632 242.032V280.336C23.632 283.472 24.304 285.968 25.648 287.824C27.056 289.616 29.296 290.512 32.368 290.512C35.44 290.512 37.712 289.616 39.184 287.824C40.656 285.968 41.392 283.472 41.392 280.336V242.032H62.608V280.336C62.608 286.8 61.264 292.336 58.576 296.944C55.888 301.488 52.208 304.912 47.536 307.216C42.864 309.52 37.648 310.672 31.888 310.672C26.128 310.672 21.008 309.52 16.528 307.216C12.112 304.912 8.656 301.488 6.16 296.944C3.664 292.4 2.416 286.864 2.416 280.336V242.032H23.632ZM136.984 310H115.672L93.112 275.824V310H71.8V242.032H93.112L115.672 276.784V242.032H136.984V310ZM167.925 242.032V310H146.613V242.032H167.925ZM222.286 321.04L215.758 310.288C214.286 310.544 212.59 310.672 210.67 310.672C204.27 310.672 198.382 309.168 193.006 306.16C187.694 303.152 183.47 298.992 180.334 293.68C177.198 288.368 175.63 282.384 175.63 275.728C175.63 269.072 177.198 263.088 180.334 257.776C183.47 252.464 187.694 248.336 193.006 245.392C198.382 242.384 204.27 240.88 210.67 240.88C217.07 240.88 222.926 242.384 228.238 245.392C233.55 248.336 237.742 252.464 240.814 257.776C243.95 263.088 245.518 269.072 245.518 275.728C245.518 281.168 244.462 286.192 242.35 290.8C240.238 295.344 237.326 299.216 233.614 302.416L247.438 321.04H222.286ZM197.326 275.728C197.326 280.336 198.478 284.016 200.782 286.768C203.086 289.456 206.382 290.8 210.67 290.8C214.894 290.8 218.158 289.456 220.462 286.768C222.766 284.016 223.918 280.336 223.918 275.728C223.918 271.056 222.766 267.376 220.462 264.688C218.158 261.936 214.894 260.56 210.67 260.56C206.382 260.56 203.086 261.936 200.782 264.688C198.478 267.376 197.326 271.056 197.326 275.728ZM274.038 242.032V280.336C274.038 283.472 274.71 285.968 276.054 287.824C277.462 289.616 279.702 290.512 282.774 290.512C285.846 290.512 288.118 289.616 289.59 287.824C291.062 285.968 291.798 283.472 291.798 280.336V242.032H313.014V280.336C313.014 286.8 311.67 292.336 308.982 296.944C306.294 301.488 302.614 304.912 297.942 307.216C293.27 309.52 288.054 310.672 282.294 310.672C276.534 310.672 271.414 309.52 266.934 307.216C262.518 304.912 259.062 301.488 256.566 296.944C254.07 292.4 252.822 286.864 252.822 280.336V242.032H274.038ZM343.518 259.024V267.376H364.638V283.408H343.518V293.008H367.518V310H322.206V242.032H367.518V259.024H343.518ZM29.392 430.672C21.264 430.672 14.544 428.784 9.232 425.008C3.984 421.168 1.136 415.568 0.688 408.208H23.344C23.664 412.112 25.392 414.064 28.528 414.064C29.68 414.064 30.64 413.808 31.408 413.296C32.24 412.72 32.656 411.856 32.656 410.704C32.656 409.104 31.792 407.824 30.064 406.864C28.336 405.84 25.648 404.688 22 403.408C17.648 401.872 14.032 400.368 11.152 398.896C8.336 397.424 5.904 395.28 3.856 392.464C1.808 389.648 0.816 386.032 0.88 381.616C0.88 377.2 2 373.456 4.24 370.384C6.544 367.248 9.648 364.88 13.552 363.28C17.52 361.68 21.968 360.88 26.896 360.88C35.216 360.88 41.808 362.8 46.672 366.64C51.6 370.48 54.192 375.888 54.448 382.864H31.504C31.44 380.944 30.96 379.568 30.064 378.736C29.168 377.904 28.08 377.488 26.8 377.488C25.904 377.488 25.168 377.808 24.592 378.448C24.016 379.024 23.728 379.856 23.728 380.944C23.728 382.48 24.56 383.76 26.224 384.784C27.952 385.744 30.672 386.928 34.384 388.336C38.672 389.936 42.192 391.472 44.944 392.944C47.76 394.416 50.192 396.464 52.24 399.088C54.288 401.712 55.312 405.008 55.312 408.976C55.312 413.136 54.288 416.88 52.24 420.208C50.192 423.472 47.216 426.032 43.312 427.888C39.408 429.744 34.768 430.672 29.392 430.672ZM60.88 395.92C60.88 389.2 62.224 383.216 64.912 377.968C67.664 372.72 71.568 368.656 76.624 365.776C81.68 362.832 87.632 361.36 94.48 361.36C100.368 361.36 105.616 362.48 110.224 364.72C114.896 366.896 118.672 370 121.552 374.032C124.496 378.064 126.448 382.768 127.408 388.144H104.944C103.92 385.904 102.448 384.176 100.528 382.96C98.672 381.68 96.528 381.04 94.096 381.04C90.512 381.04 87.664 382.384 85.552 385.072C83.504 387.76 82.48 391.376 82.48 395.92C82.48 400.464 83.504 404.08 85.552 406.768C87.664 409.456 90.512 410.8 94.096 410.8C96.528 410.8 98.672 410.192 100.528 408.976C102.448 407.696 103.92 405.936 104.944 403.696H127.408C126.448 409.072 124.496 413.776 121.552 417.808C118.672 421.84 114.896 424.976 110.224 427.216C105.616 429.392 100.368 430.48 94.48 430.48C87.632 430.48 81.68 429.04 76.624 426.16C71.568 423.216 67.664 419.12 64.912 413.872C62.224 408.624 60.88 402.64 60.88 395.92ZM156.393 379.024V387.376H177.513V403.408H156.393V413.008H180.393V430H135.081V362.032H180.393V379.024H156.393ZM253.609 430H232.297L209.737 395.824V430H188.425V362.032H209.737L232.297 396.784V362.032H253.609V430ZM316.614 362.032V378.928H298.566V430H277.254V378.928H259.398V362.032H316.614ZM348.986 430.672C340.858 430.672 334.138 428.784 328.826 425.008C323.578 421.168 320.73 415.568 320.282 408.208H342.938C343.258 412.112 344.986 414.064 348.122 414.064C349.274 414.064 350.234 413.808 351.002 413.296C351.834 412.72 352.25 411.856 352.25 410.704C352.25 409.104 351.386 407.824 349.658 406.864C347.93 405.84 345.242 404.688 341.594 403.408C337.242 401.872 333.626 400.368 330.746 398.896C327.93 397.424 325.498 395.28 323.45 392.464C321.402 389.648 320.41 386.032 320.474 381.616C320.474 377.2 321.594 373.456 323.834 370.384C326.138 367.248 329.242 364.88 333.146 363.28C337.114 361.68 341.562 360.88 346.49 360.88C354.81 360.88 361.402 362.8 366.266 366.64C371.194 370.48 373.786 375.888 374.042 382.864H351.098C351.034 380.944 350.554 379.568 349.658 378.736C348.762 377.904 347.674 377.488 346.394 377.488C345.498 377.488 344.762 377.808 344.186 378.448C343.61 379.024 343.322 379.856 343.322 380.944C343.322 382.48 344.154 383.76 345.818 384.784C347.546 385.744 350.266 386.928 353.978 388.336C358.266 389.936 361.786 391.472 364.538 392.944C367.354 394.416 369.786 396.464 371.834 399.088C373.882 401.712 374.906 405.008 374.906 408.976C374.906 413.136 373.882 416.88 371.834 420.208C369.786 423.472 366.81 426.032 362.906 427.888C359.002 429.744 354.362 430.672 348.986 430.672ZM392.954 430.768C389.242 430.768 386.266 429.776 384.026 427.792C381.786 425.808 380.666 423.312 380.666 420.304C380.666 417.232 381.786 414.704 384.026 412.72C386.266 410.672 389.242 409.648 392.954 409.648C396.602 409.648 399.546 410.672 401.786 412.72C404.026 414.704 405.146 417.232 405.146 420.304C405.146 423.312 404.026 425.808 401.786 427.792C399.546 429.776 396.602 430.768 392.954 430.768Z" fill="black"/>
</svg>
